<svg width="201" height="37" viewBox="0 0 201 37" fill="none" xmlns="http://www.w3.org/2000/svg">
<g clip-path="url(#clip0_123_2790)">
<path d="M18.3492 6.11506L7.85029 18.961C3.38968 18.1816 0 14.2653 0 9.55027C0 4.27718 4.25025 0 9.49015 0C13.53 0 16.9819 2.54032 18.3492 6.11506Z" fill="#D0F603"/>
<path d="M30.0243 18.5519L44.8022 36.6084H32.6586C31.0092 36.6084 29.4697 35.9348 28.5566 34.8186L23.135 28.1696L22.6378 27.573L22.1453 28.1696L16.7237 34.8186C15.8106 35.9348 14.2711 36.6084 12.6217 36.6084H0.478149L16.7237 16.7381C17.1349 16.3243 17.5078 15.8672 17.8329 15.3813L17.8425 15.3717L28.5566 2.27073C29.4697 1.15453 31.0092 0.480957 32.6586 0.480957H44.8022L30.0243 18.5375H30.0339L30.0243 18.5519Z" fill="#D0F603"/>
<path d="M56.1495 7.18257H75.1205C79.0123 7.18257 80.7287 7.51455 81.9812 8.57782C83.267 9.60744 83.8598 11.4982 83.8598 14.486C83.8598 18.6044 82.8705 20.2306 80.0639 20.8609C82.8032 21.3275 83.6256 22.4871 83.5634 25.8405V29.3286H76.7649V26.5718C76.7317 24.1806 76.072 23.685 73.0695 23.7476H62.8097V29.3238H56.1449V7.17773L56.1495 7.18257ZM73.2705 18.335C76.5021 18.335 77.1333 17.9357 77.1333 15.7466C77.1333 14.3176 76.9996 13.721 76.5741 13.2543C76.0766 12.7251 75.5174 12.6241 73.5047 12.6241H62.8143V18.335H73.2751H73.2705Z" fill="white"/>
<path d="M100.689 26.5714C99.9293 29.0973 98.5762 29.6939 93.5609 29.6939C87.0256 29.6939 85.5098 28.7653 85.5098 24.6806C85.5098 21.7602 86.5333 20.2975 88.9425 19.8308C90.2287 19.5662 91.7155 19.4989 95.0145 19.4989C98.7772 19.4989 99.9629 19.9319 100.527 21.4234V19.7298C100.527 17.3386 100.03 17.074 95.7747 17.074C92.3756 17.074 91.9451 17.2087 91.8496 18.3345H86.1746C86.2751 16.309 86.868 15.3468 88.4501 14.4808C89.9659 13.6821 91.7155 13.4512 96.7976 13.4512C100.89 13.4512 102.803 13.7158 104.189 14.4808C105.246 15.0773 106.006 16.208 106.269 17.6706C106.336 17.9817 106.369 18.6681 106.369 19.7298V29.3282H100.694V26.5714H100.689ZM91.118 24.4112C91.118 25.306 91.6772 25.8401 92.868 26.0373C93.2645 26.1047 94.0247 26.1384 96.0665 26.1384C98.1078 26.1384 98.8726 26.071 99.5323 25.8738C100.192 25.7101 100.623 25.0751 100.623 24.3775C100.623 22.9822 99.7665 22.6839 95.6073 22.6839C92.0456 22.6839 91.118 23.0496 91.118 24.4112Z" fill="white"/>
<path d="M108.735 13.8227H114.248V16.9788C114.712 15.5162 115.238 14.8186 116.361 14.222C117.351 13.7217 118.871 13.457 120.75 13.457C124.742 13.457 127.085 14.6213 128.007 17.0414C128.667 14.4866 130.579 13.457 134.672 13.457C140.61 13.457 143.053 15.5836 143.053 20.7605V29.3293H137.378V21.1935C137.378 18.6676 136.455 17.9411 133.219 17.9411C129.719 17.9411 128.729 18.8023 128.729 21.9585V29.3293H123.054V21.4918C123.054 18.504 122.361 17.9074 118.895 17.9074C115.429 17.9074 114.405 18.8023 114.405 21.4918V29.3293H108.731V13.8227H108.735Z" fill="white"/>
<path d="M150.836 17.0751C151.596 14.0536 152.816 13.457 158.027 13.457C162.019 13.457 164.261 13.9863 165.715 15.2853C166.872 16.2812 167.264 17.9074 167.264 21.4966C167.264 25.283 166.8 26.9429 165.447 28.0735C164.06 29.2667 162.014 29.6997 157.893 29.6997C153.342 29.6997 151.391 28.8048 150.832 26.4473V36.0746H145.157V13.8275H150.832V17.0799L150.836 17.0751ZM151.86 18.2731C151.133 18.8359 150.87 19.702 150.87 21.5928C150.87 24.9799 151.463 25.3792 156.411 25.3792C159.117 25.3792 159.939 25.2445 160.504 24.7826C161.197 24.1861 161.426 23.3537 161.426 21.3955C161.426 18.3404 160.599 17.7102 156.545 17.7102C153.442 17.7102 152.453 17.8449 151.86 18.2731Z" fill="white"/>
<path d="M178.417 18.2725L168.024 7.18262H176.868L183.93 15.1163L191.125 7.18262H199.735L189.375 18.1715L200.429 29.3287H191.321L183.93 21.3613L176.505 29.3287H167.464L178.417 18.2725Z" fill="white"/>
</g>
<defs>
<clipPath id="clip0_123_2790">
<rect width="201" height="36.8807" fill="white"/>
</clipPath>
</defs>
</svg>
