<svg width="46" height="45" viewBox="0 0 46 45" fill="none" xmlns="http://www.w3.org/2000/svg">
<circle cx="23.0271" cy="22.4055" r="22.2251" fill="white" fill-opacity="0.2"/>
<path d="M18.4942 11.8065C18.1249 11.4371 17.5261 11.4371 17.1568 11.8065L11.1381 17.8252C10.7687 18.1945 10.7687 18.7933 11.1381 19.1627C11.5074 19.532 12.1062 19.532 12.4755 19.1627L17.8255 13.8127L23.1755 19.1627C23.5448 19.532 24.1436 19.532 24.5129 19.1627C24.8823 18.7933 24.8823 18.1945 24.5129 17.8252L18.4942 11.8065ZM16.8798 12.4752L16.8798 32.3359L18.7712 32.3359L18.7712 12.4752L16.8798 12.4752Z" fill="#B3CF3D"/>
<path d="M27.56 33.0047C27.9293 33.374 28.5281 33.374 28.8975 33.0047L34.9162 26.986C35.2855 26.6166 35.2855 26.0178 34.9162 25.6485C34.5468 25.2791 33.948 25.2791 33.5787 25.6485L28.2287 30.9984L22.8788 25.6485C22.5094 25.2791 21.9106 25.2791 21.5413 25.6485C21.1719 26.0178 21.1719 26.6166 21.5413 26.986L27.56 33.0047ZM27.283 12.4752L27.283 32.3359L29.1745 32.3359L29.1745 12.4752L27.283 12.4752Z" fill="#B3CF3D"/>
</svg>
