<svg width="45" height="37" viewBox="0 0 45 37" fill="none" xmlns="http://www.w3.org/2000/svg">
<g clip-path="url(#clip0_1139_5)">
<path d="M18.3492 6.11506L7.85029 18.961C3.38968 18.1816 0 14.2653 0 9.55027C0 4.27718 4.25025 0 9.49015 0C13.53 0 16.9819 2.54032 18.3492 6.11506Z" fill="#D0F603"/>
<path d="M30.0243 18.5514L44.8022 36.6079H32.6586C31.0092 36.6079 29.4697 35.9343 28.5566 34.8181L23.135 28.1691L22.6378 27.5725L22.1453 28.1691L16.7237 34.8181C15.8106 35.9343 14.2711 36.6079 12.6217 36.6079H0.478149L16.7237 16.7376C17.1349 16.3238 17.5078 15.8667 17.8329 15.3808L17.8425 15.3712L28.5566 2.27024C29.4697 1.15404 31.0092 0.480469 32.6586 0.480469H44.8022L30.0243 18.537H30.0339L30.0243 18.5514Z" fill="#D0F603"/>
</g>
<defs>
<clipPath id="clip0_1139_5">
<rect width="45" height="37" fill="white"/>
</clipPath>
</defs>
</svg>
