<svg width="35" height="35" viewBox="0 0 35 35" fill="none" xmlns="http://www.w3.org/2000/svg">
<path d="M34.5 17.5C34.5 26.8888 26.8888 34.5 17.5 34.5C8.11116 34.5 0.5 26.8888 0.5 17.5C0.5 8.11116 8.11116 0.5 17.5 0.5C26.8888 0.5 34.5 8.11116 34.5 17.5Z" fill="#9B9B9B" fill-opacity="0.4" stroke="#B3CF3D"/>
<path d="M27.5786 19.2838C27.7591 19.2258 27.8814 19.0579 27.8814 18.8682V16.1446C27.8814 15.9549 27.7588 15.787 27.5784 15.729L25.0097 14.9051C24.896 14.5888 24.7794 14.3071 24.6571 14.0522L25.8917 11.6431C25.978 11.4748 25.9458 11.2697 25.8122 11.1359L23.8877 9.20677C23.7539 9.07208 23.5491 9.04054 23.3806 9.12621L20.9715 10.355C20.7007 10.2199 20.4118 10.0993 20.1082 9.99445L19.2859 7.42213C19.2279 7.24141 19.06 7.11865 18.8702 7.11865H16.1473C15.9581 7.11865 15.7904 7.24056 15.732 7.42085L14.9008 9.9919C14.6404 10.0823 14.3408 10.1978 14.037 10.3495L11.6427 9.11769C11.4735 9.03116 11.2681 9.06356 11.1341 9.19782L9.2053 11.1316C9.07192 11.2655 9.03974 11.4696 9.12561 11.638L10.3463 14.0317C10.2091 14.3109 10.0902 14.5999 9.99112 14.8949L7.42974 15.7205C7.24991 15.7784 7.12782 15.9455 7.12718 16.1348L7.11865 18.8584C7.11802 19.0481 7.23989 19.216 7.42016 19.2748L9.99176 20.1103C10.0898 20.3865 10.2063 20.6648 10.3487 20.9632L9.12135 23.3658C9.03548 23.5342 9.06744 23.7384 9.20083 23.8722L11.1209 25.8013C11.2544 25.9356 11.4594 25.9697 11.628 25.8823L14.0357 24.6561C14.3193 24.795 14.601 24.9131 14.8885 25.0132L15.7237 27.58C15.7821 27.7599 15.9496 27.8814 16.1386 27.8814H18.8615C19.0505 27.8814 19.2179 27.7599 19.2763 27.58L20.1124 25.0115C20.4141 24.9045 20.6952 24.7886 20.9626 24.6603L23.3674 25.887C23.5365 25.9727 23.74 25.9403 23.8741 25.8073L25.7983 23.8867C25.9319 23.7533 25.9648 23.5487 25.8791 23.3803L24.6541 20.9657C24.7824 20.707 24.8996 20.4244 25.0089 20.1107L27.5786 19.2838ZM23.7743 21.1605L24.9575 23.4924L23.4818 24.9655L21.1633 23.7827C21.0376 23.7179 20.8895 23.7188 20.7646 23.7836C20.4188 23.9626 20.047 24.1164 19.6283 24.2541C19.4964 24.2976 19.3929 24.4016 19.35 24.5337L18.5446 27.0084H16.4554L15.65 24.5337C15.6065 24.3999 15.5008 24.295 15.3666 24.2528C14.9841 24.1318 14.6146 23.9771 14.2371 23.7797C14.1122 23.7149 13.9631 23.7136 13.8371 23.778L11.515 24.9604L10.0427 23.4809L11.225 21.166C11.2881 21.0424 11.2888 20.8962 11.2267 20.7722C11.0194 20.3575 10.8679 19.9943 10.7499 19.6286C10.7068 19.4956 10.6027 19.3912 10.4695 19.3477L7.99248 18.543L7.99887 16.4545L10.4729 15.657C10.6097 15.6126 10.716 15.504 10.7571 15.3663C10.8739 14.9759 11.0299 14.5965 11.2214 14.2376C11.2885 14.1119 11.29 13.961 11.225 13.834L10.047 11.5238L11.5268 10.0401L13.8399 11.2301C13.9701 11.2962 14.1246 11.294 14.252 11.2233C14.5646 11.049 14.9029 10.9074 15.3839 10.7502C15.5166 10.7071 15.6206 10.6027 15.6636 10.4697L16.4648 7.99158H18.5516L19.3447 10.4727C19.3882 10.6082 19.4947 10.7139 19.6302 10.7561C20.0395 10.884 20.4197 11.0434 20.76 11.2293C20.8865 11.2979 21.0391 11.3004 21.1674 11.2348L23.4941 10.0482L24.9701 11.5276L23.7794 13.8506C23.7149 13.9768 23.7155 14.1264 23.7812 14.2517C23.9478 14.5709 24.1033 14.9447 24.2565 15.3948C24.3011 15.5257 24.4048 15.6276 24.5363 15.6698L27.0086 16.463V18.5502L24.5318 19.3473C24.398 19.3904 24.2934 19.4952 24.2501 19.6286C24.1089 20.0664 23.9552 20.4346 23.7805 20.7535C23.7115 20.88 23.7091 21.0322 23.7743 21.1605Z" fill="white"/>
<path d="M18.3404 13.0902C16.0744 12.7665 13.9836 14.4802 13.6813 16.9088C13.5347 18.0873 13.8238 19.2567 14.4957 20.2008C15.1684 21.1459 16.1442 21.7532 17.2439 21.91C17.4292 21.9364 17.6132 21.9492 17.7953 21.9492C19.8453 21.9492 21.6347 20.3189 21.9125 18.0836C22.2146 15.6551 20.6123 13.4148 18.3404 13.0902ZM21.0488 17.9605C20.8099 19.884 19.1582 21.2412 17.3588 20.9845C16.4906 20.8605 15.7198 20.3814 15.1888 19.6346C14.6578 18.8883 14.4291 17.9642 14.545 17.0319C14.7641 15.2698 16.1746 13.9846 17.7906 13.9846C17.9342 13.9846 18.0793 13.9947 18.2253 14.0156C20.0208 14.2723 21.2873 16.0417 21.0488 17.9605Z" fill="white"/>
</svg>
