<svg width="29" height="28" viewBox="0 0 29 28" fill="none" xmlns="http://www.w3.org/2000/svg">
<path fill-rule="evenodd" clip-rule="evenodd" d="M14.337 27.8329C18.3642 27.8329 21.987 26.1062 24.5016 23.3545L23.8325 22.618C23.0045 21.7066 21.5929 21.6287 20.6686 22.4434L19.2412 23.7016C17.2994 25.4133 14.348 25.3053 12.5378 23.4564L11.6454 22.5449C10.7883 21.6696 9.38403 21.6392 8.48938 22.4764L5.87155 24.9263C8.20535 26.7474 11.1441 27.8329 14.337 27.8329ZM25.7668 20.8796L26.0918 21.2373C27.3575 19.1623 28.0865 16.7259 28.0865 14.1196C28.0865 10.9593 27.0147 8.04863 25.2137 5.72958C24.8789 5.81517 24.559 5.97897 24.2826 6.22255L22.8554 7.48069C20.9136 9.19237 17.9622 9.08448 16.152 7.23563L15.2596 6.32409C14.4024 5.44876 12.9982 5.41825 12.1035 6.25552L8.43119 9.6923L6.64464 7.80393L10.317 4.36714C12.2475 2.56041 15.2779 2.62626 17.1273 4.51513L18.0197 5.42667C18.8587 6.28345 20.2263 6.33344 21.1262 5.54022L22.5534 4.28208C22.793 4.07094 23.0477 3.88758 23.3136 3.73177C20.9048 1.65939 17.7676 0.40625 14.337 0.40625C7.43944 0.40625 1.72815 5.47196 0.739068 12.0767C2.62124 10.9961 5.06512 11.2786 6.64603 12.8933L7.67816 13.9474C8.48042 14.7669 9.77456 14.8533 10.6798 14.1479L13.7394 11.7639C15.5758 10.3329 18.1756 10.4021 19.9324 11.9287L24.0986 15.549L22.3834 17.5016L18.2171 13.8814C17.403 13.1739 16.1982 13.1418 15.3472 13.805L12.2876 16.1891C10.3342 17.7111 7.54159 17.5246 5.8104 15.7564L4.77828 14.7023C3.92124 13.8269 2.51694 13.7964 1.62229 14.6337L0.659821 15.5344C0.957474 18.4309 2.15901 21.0604 3.97847 23.1376L6.70284 20.588C8.6334 18.7813 11.6637 18.8471 13.5131 20.736L14.4056 21.6475C15.2445 22.5043 16.6122 22.5543 17.512 21.7612L18.9394 20.503C20.9339 18.7448 23.9801 18.9128 25.7668 20.8796Z" fill="url(#paint0_linear_221_164)"/>
<defs>
<linearGradient id="paint0_linear_221_164" x1="14.3732" y1="0.40625" x2="19.7647" y2="27.833" gradientUnits="userSpaceOnUse">
<stop stop-color="#780000"/>
<stop offset="1" stop-color="#C1121F"/>
</linearGradient>
</defs>
</svg>
