<svg width="35" height="35" viewBox="0 0 35 35" fill="none" xmlns="http://www.w3.org/2000/svg">
<path d="M34.5 17.5C34.5 26.8888 26.8888 34.5 17.5 34.5C8.11116 34.5 0.5 26.8888 0.5 17.5C0.5 8.11116 8.11116 0.5 17.5 0.5C26.8888 0.5 34.5 8.11116 34.5 17.5Z" fill="black" fill-opacity="0.25" stroke="#B3CF3D"/>
<path d="M27.5791 19.2823C27.7595 19.2244 27.8819 19.0564 27.8819 18.8668V16.1431C27.8819 15.9534 27.7593 15.7855 27.5789 15.7275L25.0102 14.9036C24.8965 14.5874 24.7799 14.3056 24.6576 14.0507L25.8922 11.6417C25.9785 11.4733 25.9463 11.2683 25.8127 11.1344L23.8882 9.20531C23.7544 9.07062 23.5496 9.03908 23.3811 9.12475L20.972 10.3536C20.7012 10.2185 20.4123 10.0978 20.1086 9.99299L19.2864 7.42067C19.2284 7.23994 19.0605 7.11719 18.8707 7.11719H16.1478C15.9586 7.11719 15.7909 7.23909 15.7325 7.41939L14.9013 9.99043C14.6409 10.0808 14.3413 10.1963 14.0375 10.348L11.6432 9.11623C11.474 9.0297 11.2686 9.06209 11.1345 9.19636L9.20579 11.1302C9.07241 11.264 9.04023 11.4682 9.1261 11.6365L10.3468 14.0303C10.2096 14.3095 10.0907 14.5984 9.99161 14.8934L7.43023 15.719C7.2504 15.777 7.12831 15.9441 7.12767 16.1333L7.11914 18.857C7.1185 19.0466 7.24038 19.2146 7.42064 19.2734L9.99225 20.1088C10.0903 20.385 10.2068 20.6633 10.3492 20.9617L9.12184 23.3644C9.03597 23.5327 9.06793 23.7369 9.20132 23.8707L11.1213 25.7999C11.2549 25.9341 11.4599 25.9682 11.6285 25.8809L14.0362 24.6546C14.3198 24.7935 14.6015 24.9116 14.8889 25.0118L15.7242 27.5786C15.7826 27.7584 15.9501 27.8799 16.1391 27.8799H18.8619C19.0509 27.8799 19.2184 27.7584 19.2768 27.5786L20.1129 25.0101C20.4146 24.9031 20.6957 24.7871 20.9631 24.6588L23.3678 25.8856C23.537 25.9712 23.7405 25.9388 23.8745 25.8058L25.7988 23.8852C25.9324 23.7518 25.9652 23.5472 25.8796 23.3789L24.6546 20.9643C24.7829 20.7055 24.9001 20.4229 25.0094 20.1092L27.5791 19.2823ZM23.7748 21.159L24.958 23.491L23.4823 24.964L21.1638 23.7812C21.0381 23.7164 20.89 23.7173 20.7651 23.7821C20.4193 23.9611 20.0475 24.115 19.6288 24.2526C19.4969 24.2961 19.3934 24.4001 19.3505 24.5323L18.5451 27.007H16.4559L15.6505 24.5323C15.607 24.3984 15.5013 24.2936 15.3671 24.2514C14.9846 24.1303 14.6151 23.9756 14.2376 23.7782C14.1127 23.7135 13.9636 23.7122 13.8376 23.7765L11.5155 24.9589L10.0432 23.4795L11.2255 21.1646C11.2886 21.041 11.2892 20.8948 11.2272 20.7707C11.0199 20.356 10.8684 19.9929 10.7504 19.6272C10.7073 19.4942 10.6031 19.3897 10.47 19.3463L7.99297 18.5415L7.99936 16.453L10.4734 15.6555C10.6102 15.6112 10.7165 15.5025 10.7576 15.3648C10.8744 14.9744 11.0304 14.595 11.2219 14.2361C11.289 14.1104 11.2905 13.9595 11.2255 13.8325L10.0474 11.5223L11.5272 10.0386L13.8404 11.2286C13.9706 11.2947 14.1251 11.2926 14.2525 11.2218C14.5651 11.0475 14.9034 10.906 15.3843 10.7487C15.5171 10.7057 15.6211 10.6012 15.6641 10.4682L16.4653 7.99011H18.5521L19.3452 10.4712C19.3887 10.6068 19.4952 10.7125 19.6307 10.7547C20.04 10.8825 20.4202 11.042 20.7604 11.2278C20.887 11.2964 21.0396 11.299 21.1678 11.2333L23.4946 10.0467L24.9706 11.5262L23.7799 13.8491C23.7154 13.9753 23.716 14.1249 23.7816 14.2502C23.9483 14.5695 24.1038 14.9433 24.257 15.3934C24.3015 15.5242 24.4053 15.6261 24.5368 15.6683L27.0091 16.4615V18.5488L24.5323 19.3458C24.3985 19.3889 24.2939 19.4937 24.2506 19.6272C24.1094 20.0649 23.9557 20.4332 23.781 20.752C23.712 20.8786 23.7096 21.0307 23.7748 21.159Z" fill="white"/>
<path d="M18.3409 13.09C16.0749 12.7664 13.9841 14.4801 13.6818 16.9087C13.5352 18.0872 13.8243 19.2565 14.4962 20.2007C15.1689 21.1458 16.1447 21.753 17.2444 21.9099C17.4297 21.9363 17.6137 21.9491 17.7958 21.9491C19.8458 21.9491 21.6352 20.3188 21.913 18.0835C22.2151 15.6549 20.6127 13.4146 18.3409 13.09ZM21.0493 17.9604C20.8104 19.8839 19.1586 21.2411 17.3593 20.9844C16.4911 20.8604 15.7203 20.3812 15.1893 19.6345C14.6583 18.8882 14.4296 17.9641 14.5455 17.0318C14.7646 15.2697 16.1751 13.9845 17.7911 13.9845C17.9347 13.9845 18.0798 13.9945 18.2258 14.0155C20.0213 14.2722 21.2878 16.0415 21.0493 17.9604Z" fill="white"/>
</svg>
