<svg width="35" height="35" viewBox="0 0 35 35" fill="none" xmlns="http://www.w3.org/2000/svg">
<path d="M34.5 17.5C34.5 26.8888 26.8888 34.5 17.5 34.5C8.11116 34.5 0.5 26.8888 0.5 17.5C0.5 8.11116 8.11116 0.5 17.5 0.5C26.8888 0.5 34.5 8.11116 34.5 17.5Z" fill="black" fill-opacity="0.25" stroke="#B3CF3D"/>
<path d="M23.6612 11.6349C22.1602 10.1296 20.0878 9.19531 17.7921 9.19531C13.2006 9.19531 9.49219 12.9118 9.49219 17.5004C9.49219 22.089 13.2006 25.8055 17.7921 25.8055C21.6616 25.8055 24.9026 23.1582 25.8219 19.5767H23.6612C22.8042 21.9955 20.5085 23.7292 17.7921 23.7292C14.3485 23.7292 11.5594 20.9418 11.5594 17.5004C11.5594 14.059 14.3485 11.2716 17.7921 11.2716C19.5113 11.2716 21.0539 11.9879 22.1809 13.1143L18.8309 16.4623H26.1024V9.19531L23.6612 11.6349Z" fill="white"/>
</svg>
