<svg width="58" height="59" viewBox="0 0 58 59" fill="none" xmlns="http://www.w3.org/2000/svg">
<path d="M57.5 29.5C57.5 45.2401 44.7401 58 29 58C13.2599 58 0.5 45.2401 0.5 29.5C0.5 13.7599 13.2599 1 29 1C44.7401 1 57.5 13.7599 57.5 29.5Z" fill="black" fill-opacity="0.25" stroke="#B3CF3D"/>
<path d="M17.5353 29.0135C23.5309 25.403 27.5281 23.0232 29.5286 21.8728C35.2396 18.5896 36.4262 18.0195 37.2003 18.0002C37.3702 17.9961 37.751 18.0541 37.9973 18.3305C38.2054 18.5642 38.2627 18.8792 38.2899 19.1007C38.3171 19.3222 38.3517 19.8263 38.3245 20.2195C38.0149 24.7141 36.6761 35.6217 35.9946 40.6559C35.7064 42.7858 35.1389 43.5002 34.5889 43.5703C33.395 43.7217 32.4877 42.4789 31.3313 41.4312C29.5212 39.7911 28.4986 38.7709 26.7415 37.1704C24.7108 35.3209 26.0276 34.3048 27.184 32.6433C27.4869 32.2084 32.7487 25.5931 32.8509 24.9935C32.8634 24.9183 32.8752 24.6389 32.7554 24.4905C32.6348 24.3432 32.4576 24.393 32.3297 24.4336C32.1481 24.4905 29.2566 27.1326 23.6551 32.3588C22.8346 33.1382 22.0906 33.5172 21.4245 33.4979C20.6901 33.4756 19.2777 32.9238 18.2279 32.4523C16.9398 31.8741 15.9164 31.5682 16.0054 30.5845C16.0517 30.0724 16.5619 29.5481 17.5353 29.0135Z" fill="white"/>
</svg>
