<svg width="60" height="59" viewBox="0 0 60 59" fill="none" xmlns="http://www.w3.org/2000/svg">
<circle cx="30.3696" cy="29.5" r="29" fill="#9B9B9B" fill-opacity="0.4" stroke="#B3CF3D"/>
<path d="M17.5353 28.0135C23.5309 24.403 27.5281 22.0232 29.5286 20.8728C35.2396 17.5896 36.4262 17.0195 37.2003 17.0002C37.3702 16.9961 37.751 17.0541 37.9973 17.3305C38.2054 17.5642 38.2627 17.8792 38.2899 18.1007C38.3171 18.3222 38.3517 18.8263 38.3245 19.2195C38.0149 23.7141 36.6761 34.6217 35.9946 39.6559C35.7064 41.7858 35.1389 42.5002 34.5889 42.5703C33.395 42.7217 32.4877 41.4789 31.3313 40.4312C29.5212 38.7911 28.4986 37.7709 26.7415 36.1704C24.7108 34.3209 26.0276 33.3048 27.184 31.6433C27.4869 31.2084 32.7487 24.5931 32.8509 23.9935C32.8634 23.9183 32.8752 23.6389 32.7554 23.4905C32.6348 23.3432 32.4576 23.393 32.3297 23.4336C32.1481 23.4905 29.2566 26.1326 23.6551 31.3588C22.8346 32.1382 22.0906 32.5172 21.4245 32.4979C20.6901 32.4756 19.2777 31.9238 18.2279 31.4523C16.9398 30.8741 15.9164 30.5682 16.0054 29.5845C16.0517 29.0724 16.5619 28.5491 17.5353 28.0145V28.0135Z" fill="white"/>
</svg>
