<svg width="59" height="59" viewBox="0 0 59 59" fill="none" xmlns="http://www.w3.org/2000/svg">
<path d="M58 29.5C58 45.2401 45.2401 58 29.5 58C13.7599 58 1 45.2401 1 29.5C1 13.7599 13.7599 1 29.5 1C45.2401 1 58 13.7599 58 29.5Z" fill="black" fill-opacity="0.25" stroke="#B3CF3D"/>
<path d="M30.9278 27.7093L38.4826 17H36.6359L30.1088 26.2534L24.8813 17H19.0681L26.8787 30.8283L19 42H20.8497L27.7013 32.2834L33.1899 42H39L30.9278 27.7093ZM28.6403 30.9559L27.8177 29.5L21.7657 18.7867H24.204L29.1722 27.5817L29.9948 29.0336L36.306 40.2093H33.8678L28.6403 30.9559Z" fill="white"/>
</svg>
